<svg xmlns="http://www.w3.org/2000/svg" fill="none" viewBox="0 0 22 22" height="22" width="22">
<g clip-path="url(#clip0_178_8087)">
<path fill="#B99A54" d="M10.5438 -0.00611646C10.5763 -0.00632806 10.6088 -0.00653966 10.6423 -0.00675767C12.004 -0.0136141 12.004 -0.0136141 12.6185 0.08989C12.6739 0.0990614 12.6739 0.0990614 12.7304 0.108418C15.3731 0.558079 17.9107 1.941 19.5722 4.07627C19.595 4.10486 19.6178 4.13345 19.6413 4.16291C21.3874 6.38326 22.1957 9.17973 21.9283 12.3017C21.6005 14.9385 20.2964 17.6606 18.1779 19.3327C18.1102 19.387 18.0471 19.4437 17.9836 19.5029C15.9427 21.3271 12.997 22.1332 10.308 21.986C7.37758 21.7983 4.64856 20.4409 2.69754 18.2534C2.60433 18.1459 2.51558 18.0356 2.42779 17.9237C2.39584 17.884 2.36388 17.8443 2.3319 17.8046C1.83744 17.186 1.41984 16.5081 1.0773 15.7941C1.04927 15.7361 1.02048 15.6786 0.991555 15.621C0.524787 14.6791 0.259485 13.6517 0.0899138 12.6185C0.0845385 12.5865 0.0791632 12.5545 0.0736249 12.5215C-0.0873952 11.5124 -0.0759029 10.3889 0.0899138 9.38144C0.0987107 9.32287 0.107492 9.26429 0.116257 9.2057C0.481232 6.86705 1.64317 4.77958 3.29823 3.11068C3.3281 3.08056 3.35792 3.05039 3.38771 3.02017C3.58672 2.8186 3.79386 2.63323 4.01634 2.45774C4.05172 2.42915 4.08708 2.40055 4.12242 2.37192C5.91739 0.947298 8.2332 0.00396666 10.5438 -0.00611646Z"></path>
<path fill="#FEFEFE" d="M6 8.59058C6.19782 8.65981 6.39564 8.72905 6.59946 8.80039C6.73298 8.84675 6.73298 8.84675 6.86921 8.89405C7.0437 8.95554 7.21391 9.0228 7.38402 9.09566C7.47122 9.13113 7.55894 9.16107 7.6485 9.19003C7.79825 9.23852 7.94183 9.29605 8.08654 9.3578C8.19016 9.40073 8.29448 9.44063 8.39958 9.47981C8.42008 9.48746 8.44059 9.49511 8.46171 9.503C8.53032 9.5286 8.59895 9.55414 8.66757 9.57968C8.71774 9.59838 8.7679 9.61708 8.81807 9.63579C8.95307 9.68611 9.08809 9.73637 9.22312 9.78661C9.30596 9.81743 9.38879 9.84827 9.47163 9.87911C9.49877 9.88921 9.52592 9.89931 9.55389 9.90972C9.60826 9.92995 9.66262 9.9502 9.71699 9.97045C9.84857 10.0194 9.98027 10.068 10.1123 10.1158C10.1374 10.1249 10.1624 10.134 10.1883 10.1434C10.2347 10.1603 10.2811 10.177 10.3275 10.1936C10.5095 10.2598 10.6774 10.3379 10.8556 10.4189C10.8556 12.3378 10.8556 14.2566 10.8556 16.2336C10.7014 16.2116 10.6007 16.1925 10.4615 16.1381C10.4268 16.1247 10.392 16.1113 10.3563 16.0975C10.3195 16.0831 10.2828 16.0686 10.2449 16.0538C10.1671 16.0237 10.0892 15.9937 10.0113 15.9638C9.98189 15.9524 9.98189 15.9524 9.95188 15.9408C9.72793 15.8548 9.50208 15.7741 9.27594 15.6939C9.14599 15.6477 9.01679 15.6007 8.88898 15.5488C8.66238 15.457 8.43235 15.3741 8.203 15.2895C7.68809 15.0995 7.68809 15.0995 7.45435 15.0047C7.28438 14.9375 7.11213 14.8762 6.9404 14.8137C6.62628 14.6992 6.31305 14.5826 6 14.4652C6 12.5266 6 10.588 6 8.59058Z"></path>
<path fill="#FEFEFE" d="M16.4007 8.59058C16.4007 10.5193 16.4007 12.4481 16.4007 14.4353C16.1309 14.5701 16.1309 14.5701 16.0185 14.6095C15.9908 14.6193 15.9631 14.6291 15.9345 14.6392C15.9004 14.651 15.8663 14.6629 15.8312 14.675C15.7325 14.7093 15.6339 14.7437 15.5352 14.7781C15.509 14.7872 15.4828 14.7963 15.4559 14.8057C15.2839 14.8659 15.1133 14.9288 14.9437 14.9953C14.8368 15.0368 14.7296 15.0771 14.6222 15.1171C14.3883 15.2047 14.1549 15.2934 13.9217 15.3827C13.8548 15.4082 13.788 15.4338 13.7212 15.4593C13.4962 15.5454 13.2716 15.6321 13.0475 15.7203C12.8447 15.8001 12.6395 15.872 12.4334 15.9426C12.2177 16.0173 12.0063 16.1013 11.7956 16.189C11.7719 16.1988 11.7483 16.2085 11.7239 16.2185C11.7031 16.2272 11.6822 16.2359 11.6608 16.2449C11.6051 16.2636 11.6051 16.2636 11.5151 16.2636C11.5151 14.3349 11.5151 12.4061 11.5151 10.4189C11.8193 10.2837 11.8193 10.2837 11.9331 10.2401C11.971 10.2256 11.971 10.2256 12.0096 10.2108C12.0356 10.201 12.0616 10.1911 12.0884 10.181C12.1157 10.1706 12.143 10.1602 12.1712 10.1495C12.3683 10.0751 12.5665 10.0064 12.7672 9.94251C12.8393 9.9178 12.9063 9.89132 12.9756 9.86032C13.0737 9.81946 13.0737 9.81946 13.1636 9.81946C13.1636 10.3437 13.1636 10.8679 13.1636 11.408C13.7327 11.2047 13.7327 11.2047 14.2953 10.9834C14.3625 10.9584 14.3625 10.9584 14.4525 10.9584C14.4525 10.4144 14.4525 9.87041 14.4525 9.30992C15.1406 9.03467 15.1406 9.03467 15.4191 8.93152C15.4796 8.90896 15.5401 8.8864 15.6007 8.86384C15.6439 8.84778 15.6439 8.84778 15.688 8.83138C15.8089 8.78637 15.9296 8.74092 16.0504 8.69548C16.3293 8.59058 16.3293 8.59058 16.4007 8.59058Z"></path>
<path fill="#FEFEFD" d="M11.6667 6.14069C11.6917 6.15016 11.7168 6.15963 11.7427 6.16938C11.8223 6.19945 11.9018 6.22978 11.9812 6.26011C12.0337 6.28 12.0862 6.29986 12.1387 6.31971C12.2416 6.35867 12.3446 6.39773 12.4475 6.43686C12.5821 6.48801 12.7169 6.53866 12.8517 6.58911C13.0085 6.64775 13.1649 6.70712 13.3211 6.76721C13.5404 6.85157 13.7596 6.93238 13.9832 7.00463C14.0651 7.03283 14.144 7.06522 14.2236 7.09935C14.5445 7.23617 14.8757 7.34928 15.2047 7.46499C15.3938 7.53159 15.5792 7.60276 15.7637 7.68124C15.9539 7.75964 16.1474 7.82984 16.3404 7.90112C16.3404 7.9209 16.3404 7.94069 16.3404 7.96107C16.1233 8.05092 15.9033 8.13219 15.6823 8.21169C15.5637 8.25477 15.4477 8.30033 15.3328 8.35247C15.2151 8.40575 15.0978 8.44794 14.9748 8.48746C14.8535 8.52643 14.7342 8.56667 14.617 8.61672C14.4312 8.67644 14.2805 8.61874 14.1085 8.53968C14.0908 8.53164 14.0731 8.5236 14.0548 8.51531C13.998 8.48941 13.9412 8.46315 13.8845 8.43688C13.8452 8.41892 13.8059 8.40098 13.7666 8.38308C13.6897 8.34806 13.6128 8.31293 13.536 8.27773C13.3765 8.20504 13.2158 8.13538 13.0548 8.06609C12.9839 8.03456 12.9149 8.00225 12.8457 7.96751C12.8114 7.95055 12.7771 7.93358 12.7418 7.91611C12.7124 7.90096 12.683 7.88582 12.6527 7.87021C12.4702 7.81058 12.3094 7.88194 12.1386 7.9517C12.1192 7.95961 12.0998 7.96753 12.0798 7.97568C11.9242 8.04017 11.7744 8.11422 11.6246 8.19113C11.3639 8.32074 11.3639 8.32074 11.2151 8.32074C11.2151 8.34052 11.2151 8.3603 11.2151 8.38069C11.2342 8.38338 11.2534 8.38608 11.2731 8.38885C11.4 8.41898 11.5157 8.46923 11.6357 8.51978C11.6751 8.53615 11.6751 8.53615 11.7152 8.55284C11.7989 8.58775 11.8826 8.62284 11.9663 8.65793C12.0217 8.68109 12.0772 8.70423 12.1327 8.72736C12.2637 8.782 12.3946 8.83678 12.5255 8.89161C12.6182 8.93039 12.7108 8.9691 12.8035 9.00777C12.8295 9.01862 12.8555 9.02947 12.8822 9.04064C12.9557 9.07098 13.0295 9.10062 13.1034 9.13C13.0104 9.23182 12.9024 9.27008 12.7755 9.31733C12.7519 9.32635 12.7282 9.33537 12.7038 9.34466C12.4999 9.42163 12.2944 9.49364 12.0884 9.56479C11.9442 9.61469 11.8013 9.66661 11.659 9.72197C11.601 9.74445 11.5429 9.76693 11.4848 9.78941C11.4593 9.79937 11.4338 9.80934 11.4076 9.81961C11.1845 9.90161 11.0455 9.85694 10.8315 9.76821C10.7111 9.71962 10.5895 9.67483 10.4676 9.63017C10.4433 9.62125 10.4191 9.61233 10.394 9.60314C10.2668 9.55643 10.1395 9.50998 10.0121 9.46369C9.98701 9.45454 9.96195 9.4454 9.93613 9.43597C9.88873 9.41868 9.8413 9.40146 9.79383 9.38433C9.68081 9.34303 9.57034 9.29891 9.46073 9.24919C9.33459 9.19224 9.20685 9.14603 9.07577 9.10191C8.79998 9.00712 8.5262 8.90717 8.25277 8.80584C8.20613 8.78856 8.15947 8.77131 8.11281 8.7541C7.89549 8.67391 7.67928 8.59376 7.46869 8.49694C7.35566 8.44746 7.23868 8.40908 7.12192 8.36945C6.75422 8.24267 6.38988 8.10822 6.02979 7.96107C6.02979 7.94129 6.02979 7.9215 6.02979 7.90112C6.05262 7.89386 6.07545 7.88659 6.09898 7.87911C6.31108 7.81036 6.31108 7.81036 6.51684 7.72503C6.79295 7.59794 7.08227 7.49871 7.37107 7.4047C7.53848 7.34989 7.69953 7.28676 7.86128 7.21725C7.9492 7.1813 8.03751 7.15101 8.12788 7.12183C8.27762 7.07327 8.4213 7.01595 8.56611 6.9544C8.88296 6.82181 9.2044 6.7014 9.52869 6.58836C9.81693 6.48776 10.102 6.37878 10.3871 6.26948C10.4181 6.25773 10.449 6.24599 10.481 6.23389C10.5616 6.20215 10.6409 6.16903 10.7203 6.1346C10.7439 6.12469 10.7675 6.11478 10.7918 6.10456C10.8379 6.08516 10.8838 6.06519 10.9294 6.04457C11.1882 5.93744 11.4176 6.04502 11.6667 6.14069Z"></path>
<path fill="#BB9D59" d="M7.28857 13.2961C7.40769 13.32 7.50591 13.3482 7.61851 13.3904C7.65305 13.4033 7.68759 13.4162 7.72318 13.4294C7.77696 13.4497 7.77696 13.4497 7.83183 13.4704C7.90247 13.4968 7.9731 13.5232 8.04375 13.5496C8.07787 13.5624 8.112 13.5752 8.14716 13.5885C8.27002 13.6341 8.3934 13.6783 8.51697 13.722C8.5774 13.7457 8.5774 13.7457 8.60738 13.7757C8.60999 13.8269 8.61058 13.8782 8.6103 13.9294C8.61021 13.9604 8.61011 13.9914 8.61001 14.0234C8.60963 14.0723 8.60963 14.0723 8.60925 14.1223C8.60911 14.155 8.60898 14.1878 8.60884 14.2215C8.60848 14.3027 8.60799 14.3839 8.60738 14.4651C8.4299 14.4135 8.25561 14.3584 8.08285 14.2927C8.06307 14.2852 8.04329 14.2777 8.02291 14.27C7.77755 14.1767 7.53308 14.081 7.28857 13.9855C7.28857 13.758 7.28857 13.5305 7.28857 13.2961Z"></path>
</g>
<defs>
<clipPath id="clip0_178_8087">
<rect fill="white" height="22" width="22"></rect>
</clipPath>
</defs>
</svg>
